
    <svg width="192" height="192" viewBox="0 0 512 512" xmlns="http://www.w3.org/2000/svg">
      <!-- 背景円 -->
      <circle cx="256" cy="256" r="256" fill="#1976d2"/>
      
      <!-- 掲示板アイコン -->
      <rect x="128" y="160" width="256" height="192" rx="16" fill="white" opacity="0.9"/>
      
      <!-- 投稿線 -->
      <rect x="160" y="200" width="192" height="8" rx="4" fill="#1976d2"/>
      <rect x="160" y="220" width="128" height="8" rx="4" fill="#1976d2"/>
      <rect x="160" y="240" width="160" height="8" rx="4" fill="#1976d2"/>
      
      <!-- いいねハート -->
      <path d="M320 280 C320 270, 330 260, 340 260 C350 260, 360 270, 360 280 C360 290, 340 310, 340 310 C340 310, 320 290, 320 280 Z" fill="#ff4444"/>
      
      <!-- コメントアイコン -->
      <rect x="160" y="270" width="80" height="40" rx="8" fill="#f5f5f5" stroke="#1976d2" stroke-width="2"/>
      <circle cx="180" cy="285" r="3" fill="#1976d2"/>
      <circle cx="200" cy="285" r="3" fill="#1976d2"/>
      <circle cx="220" cy="285" r="3" fill="#1976d2"/>
    </svg>
  